<svg xmlns="http://www.w3.org/2000/svg" width="180.025" height="367.033" viewBox="0 0 180.025 367.033">
  <g id="Group_25795" data-name="Group 25795" transform="translate(4978.07 -6544.483)">
    <g id="Group_25747" data-name="Group 25747" transform="translate(-4978.07 6544.483)">
      <path id="Path_32684" data-name="Path 32684" d="M439-63.275a5.457,5.457,0,0,1-6.359,4.38,5.46,5.46,0,0,1-4.38-6.359,5.461,5.461,0,0,1,6.361-4.38A5.458,5.458,0,0,1,439-63.275Z" transform="translate(-428.169 69.726)" fill="#aed1ef"/>
      <path id="Path_32685" data-name="Path 32685" d="M455.064-63.275A5.461,5.461,0,0,1,448.7-58.9a5.46,5.46,0,0,1-4.38-6.359,5.461,5.461,0,0,1,6.362-4.38A5.458,5.458,0,0,1,455.064-63.275Z" transform="translate(-401.956 69.726)" fill="#aed1ef"/>
      <path id="Path_32686" data-name="Path 32686" d="M471.125-63.275a5.461,5.461,0,0,1-6.361,4.38,5.464,5.464,0,0,1-4.38-6.359,5.461,5.461,0,0,1,6.361-4.38A5.458,5.458,0,0,1,471.125-63.275Z" transform="translate(-375.743 69.726)" fill="#aed1ef"/>
      <path id="Path_32687" data-name="Path 32687" d="M487.186-63.275a5.46,5.46,0,0,1-6.359,4.38,5.46,5.46,0,0,1-4.38-6.359,5.46,5.46,0,0,1,6.359-4.38A5.458,5.458,0,0,1,487.186-63.275Z" transform="translate(-349.529 69.726)" fill="#aed1ef"/>
      <path id="Path_32688" data-name="Path 32688" d="M503.251-63.275a5.461,5.461,0,0,1-6.361,4.38,5.46,5.46,0,0,1-4.38-6.359,5.461,5.461,0,0,1,6.361-4.38A5.462,5.462,0,0,1,503.251-63.275Z" transform="translate(-323.316 69.726)" fill="#aed1ef"/>
    </g>
    <g id="Group_25748" data-name="Group 25748" transform="translate(-4978.07 6580.094)">
      <path id="Path_32689" data-name="Path 32689" d="M439-49.745a5.457,5.457,0,0,1-6.359,4.38,5.457,5.457,0,0,1-4.38-6.359,5.461,5.461,0,0,1,6.361-4.38A5.46,5.46,0,0,1,439-49.745Z" transform="translate(-428.169 56.196)" fill="#aed1ef"/>
      <path id="Path_32690" data-name="Path 32690" d="M455.064-49.745a5.461,5.461,0,0,1-6.361,4.38,5.457,5.457,0,0,1-4.38-6.359,5.461,5.461,0,0,1,6.362-4.38A5.46,5.46,0,0,1,455.064-49.745Z" transform="translate(-401.956 56.196)" fill="#aed1ef"/>
      <path id="Path_32691" data-name="Path 32691" d="M471.125-49.745a5.461,5.461,0,0,1-6.361,4.38,5.461,5.461,0,0,1-4.38-6.359,5.461,5.461,0,0,1,6.361-4.38A5.46,5.46,0,0,1,471.125-49.745Z" transform="translate(-375.743 56.196)" fill="#aed1ef"/>
      <path id="Path_32692" data-name="Path 32692" d="M487.186-49.745a5.46,5.46,0,0,1-6.359,4.38,5.457,5.457,0,0,1-4.38-6.359,5.46,5.46,0,0,1,6.359-4.38A5.46,5.46,0,0,1,487.186-49.745Z" transform="translate(-349.529 56.196)" fill="#aed1ef"/>
      <path id="Path_32693" data-name="Path 32693" d="M503.251-49.745a5.461,5.461,0,0,1-6.361,4.38,5.457,5.457,0,0,1-4.38-6.359,5.461,5.461,0,0,1,6.361-4.38A5.464,5.464,0,0,1,503.251-49.745Z" transform="translate(-323.316 56.196)" fill="#aed1ef"/>
    </g>
    <g id="Group_25749" data-name="Group 25749" transform="translate(-4978.07 6615.705)">
      <path id="Path_32694" data-name="Path 32694" d="M439-36.213a5.459,5.459,0,0,1-6.359,4.38,5.461,5.461,0,0,1-4.38-6.361,5.461,5.461,0,0,1,6.361-4.38A5.461,5.461,0,0,1,439-36.213Z" transform="translate(-428.169 42.666)" fill="#aed1ef"/>
      <path id="Path_32695" data-name="Path 32695" d="M455.064-36.213a5.463,5.463,0,0,1-6.361,4.38,5.461,5.461,0,0,1-4.38-6.361,5.461,5.461,0,0,1,6.362-4.38A5.461,5.461,0,0,1,455.064-36.213Z" transform="translate(-401.956 42.666)" fill="#aed1ef"/>
      <path id="Path_32696" data-name="Path 32696" d="M471.125-36.213a5.463,5.463,0,0,1-6.361,4.38,5.465,5.465,0,0,1-4.38-6.361,5.461,5.461,0,0,1,6.361-4.38A5.461,5.461,0,0,1,471.125-36.213Z" transform="translate(-375.743 42.666)" fill="#aed1ef"/>
      <path id="Path_32697" data-name="Path 32697" d="M487.186-36.213a5.462,5.462,0,0,1-6.359,4.38,5.461,5.461,0,0,1-4.38-6.361,5.46,5.46,0,0,1,6.359-4.38A5.461,5.461,0,0,1,487.186-36.213Z" transform="translate(-349.529 42.666)" fill="#aed1ef"/>
      <path id="Path_32698" data-name="Path 32698" d="M503.251-36.213a5.463,5.463,0,0,1-6.361,4.38,5.461,5.461,0,0,1-4.38-6.361,5.461,5.461,0,0,1,6.361-4.38A5.465,5.465,0,0,1,503.251-36.213Z" transform="translate(-323.316 42.666)" fill="#aed1ef"/>
    </g>
    <g id="Group_25750" data-name="Group 25750" transform="translate(-4978.07 6651.315)">
      <path id="Path_32699" data-name="Path 32699" d="M439-22.683a5.457,5.457,0,0,1-6.359,4.38,5.461,5.461,0,0,1-4.38-6.361,5.461,5.461,0,0,1,6.361-4.38A5.461,5.461,0,0,1,439-22.683Z" transform="translate(-428.169 29.136)" fill="#aed1ef"/>
      <path id="Path_32700" data-name="Path 32700" d="M455.064-22.683A5.461,5.461,0,0,1,448.7-18.3a5.461,5.461,0,0,1-4.38-6.361,5.461,5.461,0,0,1,6.362-4.38A5.461,5.461,0,0,1,455.064-22.683Z" transform="translate(-401.956 29.136)" fill="#aed1ef"/>
      <path id="Path_32701" data-name="Path 32701" d="M471.125-22.683a5.461,5.461,0,0,1-6.361,4.38,5.465,5.465,0,0,1-4.38-6.361,5.461,5.461,0,0,1,6.361-4.38A5.461,5.461,0,0,1,471.125-22.683Z" transform="translate(-375.743 29.136)" fill="#aed1ef"/>
      <path id="Path_32702" data-name="Path 32702" d="M487.186-22.683a5.46,5.46,0,0,1-6.359,4.38,5.461,5.461,0,0,1-4.38-6.361,5.46,5.46,0,0,1,6.359-4.38A5.461,5.461,0,0,1,487.186-22.683Z" transform="translate(-349.529 29.136)" fill="#aed1ef"/>
      <path id="Path_32703" data-name="Path 32703" d="M503.251-22.683a5.461,5.461,0,0,1-6.361,4.38,5.461,5.461,0,0,1-4.38-6.361,5.461,5.461,0,0,1,6.361-4.38A5.465,5.465,0,0,1,503.251-22.683Z" transform="translate(-323.316 29.136)" fill="#aed1ef"/>
    </g>
    <g id="Group_25751" data-name="Group 25751" transform="translate(-4978.07 6686.929)">
      <path id="Path_32704" data-name="Path 32704" d="M439-9.154a5.457,5.457,0,0,1-6.359,4.38,5.461,5.461,0,0,1-4.38-6.361,5.461,5.461,0,0,1,6.361-4.377A5.457,5.457,0,0,1,439-9.154Z" transform="translate(-428.169 15.605)" fill="#aed1ef"/>
      <path id="Path_32705" data-name="Path 32705" d="M455.064-9.154a5.461,5.461,0,0,1-6.361,4.38,5.461,5.461,0,0,1-4.38-6.361,5.461,5.461,0,0,1,6.362-4.377A5.457,5.457,0,0,1,455.064-9.154Z" transform="translate(-401.956 15.605)" fill="#aed1ef"/>
      <path id="Path_32706" data-name="Path 32706" d="M471.125-9.154a5.461,5.461,0,0,1-6.361,4.38,5.465,5.465,0,0,1-4.38-6.361,5.461,5.461,0,0,1,6.361-4.377A5.457,5.457,0,0,1,471.125-9.154Z" transform="translate(-375.743 15.605)" fill="#aed1ef"/>
      <path id="Path_32707" data-name="Path 32707" d="M487.186-9.154a5.46,5.46,0,0,1-6.359,4.38,5.461,5.461,0,0,1-4.38-6.361,5.46,5.46,0,0,1,6.359-4.377A5.457,5.457,0,0,1,487.186-9.154Z" transform="translate(-349.529 15.605)" fill="#aed1ef"/>
      <path id="Path_32708" data-name="Path 32708" d="M503.251-9.154a5.461,5.461,0,0,1-6.361,4.38,5.461,5.461,0,0,1-4.38-6.361,5.461,5.461,0,0,1,6.361-4.377A5.461,5.461,0,0,1,503.251-9.154Z" transform="translate(-323.316 15.605)" fill="#aed1ef"/>
    </g>
    <g id="Group_25752" data-name="Group 25752" transform="translate(-4978.07 6722.539)">
      <path id="Path_32709" data-name="Path 32709" d="M439,4.376a5.46,5.46,0,1,1-4.377-6.359A5.457,5.457,0,0,1,439,4.376Z" transform="translate(-428.169 2.075)" fill="#aed1ef"/>
      <path id="Path_32710" data-name="Path 32710" d="M455.064,4.376a5.461,5.461,0,1,1-4.38-6.359A5.461,5.461,0,0,1,455.064,4.376Z" transform="translate(-401.956 2.075)" fill="#aed1ef"/>
      <path id="Path_32711" data-name="Path 32711" d="M471.125,4.376a5.461,5.461,0,1,1-4.38-6.359A5.461,5.461,0,0,1,471.125,4.376Z" transform="translate(-375.743 2.075)" fill="#aed1ef"/>
      <path id="Path_32712" data-name="Path 32712" d="M487.186,4.376a5.46,5.46,0,1,1-4.38-6.359A5.46,5.46,0,0,1,487.186,4.376Z" transform="translate(-349.529 2.075)" fill="#aed1ef"/>
      <path id="Path_32713" data-name="Path 32713" d="M503.251,4.376a5.461,5.461,0,1,1-4.38-6.359A5.461,5.461,0,0,1,503.251,4.376Z" transform="translate(-323.316 2.075)" fill="#aed1ef"/>
    </g>
    <g id="Group_25753" data-name="Group 25753" transform="translate(-4978.07 6758.15)">
      <path id="Path_32714" data-name="Path 32714" d="M439,17.908a5.46,5.46,0,1,1-4.377-6.361A5.457,5.457,0,0,1,439,17.908Z" transform="translate(-428.169 -11.455)" fill="#aed1ef"/>
      <path id="Path_32715" data-name="Path 32715" d="M455.064,17.908a5.461,5.461,0,1,1-4.38-6.361A5.461,5.461,0,0,1,455.064,17.908Z" transform="translate(-401.956 -11.455)" fill="#aed1ef"/>
      <path id="Path_32716" data-name="Path 32716" d="M471.125,17.908a5.461,5.461,0,1,1-4.38-6.361A5.461,5.461,0,0,1,471.125,17.908Z" transform="translate(-375.743 -11.455)" fill="#aed1ef"/>
      <path id="Path_32717" data-name="Path 32717" d="M487.186,17.908a5.46,5.46,0,1,1-4.38-6.361A5.46,5.46,0,0,1,487.186,17.908Z" transform="translate(-349.529 -11.455)" fill="#aed1ef"/>
      <path id="Path_32718" data-name="Path 32718" d="M503.251,17.908a5.461,5.461,0,1,1-4.38-6.361A5.461,5.461,0,0,1,503.251,17.908Z" transform="translate(-323.316 -11.455)" fill="#aed1ef"/>
    </g>
    <g id="Group_25754" data-name="Group 25754" transform="translate(-4978.07 6793.76)">
      <path id="Path_32719" data-name="Path 32719" d="M439,31.438a5.46,5.46,0,1,1-4.377-6.361A5.459,5.459,0,0,1,439,31.438Z" transform="translate(-428.169 -24.985)" fill="#aed1ef"/>
      <path id="Path_32720" data-name="Path 32720" d="M455.064,31.438a5.461,5.461,0,1,1-4.38-6.361A5.463,5.463,0,0,1,455.064,31.438Z" transform="translate(-401.956 -24.985)" fill="#aed1ef"/>
      <path id="Path_32721" data-name="Path 32721" d="M471.125,31.438a5.461,5.461,0,1,1-4.38-6.361A5.463,5.463,0,0,1,471.125,31.438Z" transform="translate(-375.743 -24.985)" fill="#aed1ef"/>
      <path id="Path_32722" data-name="Path 32722" d="M487.186,31.438a5.46,5.46,0,1,1-4.38-6.361A5.462,5.462,0,0,1,487.186,31.438Z" transform="translate(-349.529 -24.985)" fill="#aed1ef"/>
      <path id="Path_32723" data-name="Path 32723" d="M503.251,31.438a5.461,5.461,0,1,1-4.38-6.361A5.463,5.463,0,0,1,503.251,31.438Z" transform="translate(-323.316 -24.985)" fill="#aed1ef"/>
    </g>
    <g id="Group_25755" data-name="Group 25755" transform="translate(-4978.07 6829.372)">
      <path id="Path_32724" data-name="Path 32724" d="M439,44.968a5.46,5.46,0,1,1-4.377-6.361A5.457,5.457,0,0,1,439,44.968Z" transform="translate(-428.169 -38.515)" fill="#aed1ef"/>
      <path id="Path_32725" data-name="Path 32725" d="M455.064,44.968a5.461,5.461,0,1,1-4.38-6.361A5.461,5.461,0,0,1,455.064,44.968Z" transform="translate(-401.956 -38.515)" fill="#aed1ef"/>
      <path id="Path_32726" data-name="Path 32726" d="M471.125,44.968a5.461,5.461,0,1,1-4.38-6.361A5.461,5.461,0,0,1,471.125,44.968Z" transform="translate(-375.743 -38.515)" fill="#aed1ef"/>
      <path id="Path_32727" data-name="Path 32727" d="M487.186,44.968a5.46,5.46,0,1,1-4.38-6.361A5.46,5.46,0,0,1,487.186,44.968Z" transform="translate(-349.529 -38.515)" fill="#aed1ef"/>
      <path id="Path_32728" data-name="Path 32728" d="M503.251,44.968a5.461,5.461,0,1,1-4.38-6.361A5.461,5.461,0,0,1,503.251,44.968Z" transform="translate(-323.316 -38.515)" fill="#aed1ef"/>
    </g>
    <g id="Group_25756" data-name="Group 25756" transform="translate(-4978.07 6864.984)">
      <path id="Path_32729" data-name="Path 32729" d="M439,58.5a5.46,5.46,0,1,1-4.377-6.359A5.457,5.457,0,0,1,439,58.5Z" transform="translate(-428.169 -52.046)" fill="#aed1ef"/>
      <path id="Path_32730" data-name="Path 32730" d="M455.064,58.5a5.461,5.461,0,1,1-4.38-6.359A5.461,5.461,0,0,1,455.064,58.5Z" transform="translate(-401.956 -52.046)" fill="#aed1ef"/>
      <path id="Path_32731" data-name="Path 32731" d="M471.125,58.5a5.461,5.461,0,1,1-4.38-6.359A5.461,5.461,0,0,1,471.125,58.5Z" transform="translate(-375.743 -52.046)" fill="#aed1ef"/>
      <path id="Path_32732" data-name="Path 32732" d="M487.186,58.5a5.46,5.46,0,1,1-4.38-6.359A5.46,5.46,0,0,1,487.186,58.5Z" transform="translate(-349.529 -52.046)" fill="#aed1ef"/>
      <path id="Path_32733" data-name="Path 32733" d="M503.251,58.5a5.461,5.461,0,1,1-4.38-6.359A5.461,5.461,0,0,1,503.251,58.5Z" transform="translate(-323.316 -52.046)" fill="#aed1ef"/>
    </g>
    <g id="Group_25757" data-name="Group 25757" transform="translate(-4978.07 6900.595)">
      <path id="Path_32734" data-name="Path 32734" d="M439,72.027a5.46,5.46,0,1,1-4.377-6.359A5.457,5.457,0,0,1,439,72.027Z" transform="translate(-428.169 -65.576)" fill="#aed1ef"/>
      <path id="Path_32735" data-name="Path 32735" d="M455.064,72.027a5.461,5.461,0,1,1-4.38-6.359A5.461,5.461,0,0,1,455.064,72.027Z" transform="translate(-401.956 -65.576)" fill="#aed1ef"/>
      <path id="Path_32736" data-name="Path 32736" d="M471.125,72.027a5.461,5.461,0,1,1-4.38-6.359A5.461,5.461,0,0,1,471.125,72.027Z" transform="translate(-375.743 -65.576)" fill="#aed1ef"/>
      <path id="Path_32737" data-name="Path 32737" d="M487.186,72.027a5.46,5.46,0,1,1-4.38-6.359A5.46,5.46,0,0,1,487.186,72.027Z" transform="translate(-349.529 -65.576)" fill="#aed1ef"/>
      <path id="Path_32738" data-name="Path 32738" d="M503.251,72.027a5.461,5.461,0,1,1-4.38-6.359A5.461,5.461,0,0,1,503.251,72.027Z" transform="translate(-323.316 -65.576)" fill="#aed1ef"/>
    </g>
  </g>
</svg>
