
<svg xmlns="http://www.w3.org/2000/svg" width="16" height="16" viewBox="0 0 16 16">
  <g id="Group_101582" data-name="Group 101582" transform="translate(-437 -345)">
    <circle id="Ellipse_8741" data-name="Ellipse 8741" cx="6.5" cy="6.5" r="6.5" transform="translate(439 347)" fill="#1f1f1f"/>
    <g id="checked_3_" data-name="checked (3)" transform="translate(437 345)">
      <g id="Group_97314" data-name="Group 97314">
        <path id="Path_157926" data-name="Path 157926" d="M8,0a8,8,0,1,0,8,8A8.009,8.009,0,0,0,8,0Zm4.471,5.895L7.358,10.967a.787.787,0,0,1-1.1.02L3.549,8.521A.813.813,0,0,1,3.489,7.4a.793.793,0,0,1,1.123-.04L6.757,9.323l4.571-4.571a.808.808,0,0,1,1.143,1.143Z" fill="#fff"/>
      </g>
    </g>
  </g>
</svg>
