<svg xmlns="http://www.w3.org/2000/svg" width="12.504" height="9.513" viewBox="0 0 12.504 9.513">
  <g id="Group_35414" data-name="Group 35414" transform="translate(0.254 0.251)">
    <path id="Path_43743" data-name="Path 43743" d="M-623.757,1.172h-9.2a1.057,1.057,0,0,0-.256.023.6.6,0,0,0-.446.657.606.606,0,0,0,.582.539c.046,0,.091,0,.135,0h9.192l.011.021-.08.085-1.7,1.7-1.025,1.028a.6.6,0,0,0-.169.609.6.6,0,0,0,1.012.261c.25-.249.5-.5.747-.75q.649-.655,1.3-1.311.888-.894,1.778-1.787a.669.669,0,0,0,.214-.422.6.6,0,0,0-.182-.49c-.141-.145-.285-.288-.427-.432L-624.871-1.7q-.417-.419-.833-.838a.58.58,0,0,0-.546-.17.572.572,0,0,0-.463.412.586.586,0,0,0,.144.614c.184.192.373.379.562.567l2.179,2.182.083.085Z" transform="translate(633.666 2.723)" fill="#002dff" stroke="#002dff" stroke-width="0.5"/>
  </g>
</svg>
