<svg xmlns="http://www.w3.org/2000/svg" width="272.18" height="39.732" viewBox="0 0 272.18 39.732">
  <path id="Path_157981" data-name="Path 157981" d="M8.643,0,260.23.324c2.865,0,8.995.561,9.192,2.871s-7.436,4.123-7.673,5.187c-.172.82,8.186.6,8.655,1.963s-9.164,6.258-9.1,8.187,4.65,2.776,5.523,4.247-4.784,3.8-5.062,5.8c-.067.484,5.6.447,5.738,1.981s-5.241,2.369-5.957,3.881c-.321.687,3.651,1.18,3.664,2.167,0,1.451-3.308,3.052-4.984,3.052L7.408,39.6C2.817,39.6-.22,40.728-.22,36.39l-1.533-6.451S1.4,28.411,1.4,26.771s-3.32-.921-3.155-3.394,3.817-6.5,3.817-6.5L.33,6.206C.33,1.868,4.052,0,8.643,0Z" transform="translate(1.759)" fill="#ffe72f"/>
</svg>
