<svg id="Group_98988" data-name="Group 98988" xmlns="http://www.w3.org/2000/svg" width="17.01" height="17.313" viewBox="0 0 17.01 17.313">
  <path id="Path_160923" data-name="Path 160923" d="M16.972,12.145a7.418,7.418,0,0,0-1.315-2.979,8.067,8.067,0,0,0-2.483-2.228c-.255-.134-.5-.255-.752-.389-.255-.107-.523-.215-.792-.309s-.55-.148-.819-.228c-.3-.067-.644-.107-.953-.148l-.121-.013H9.658L9.51,5.837l-.3-.013H8.906l-.215.013-.429.027a8.97,8.97,0,0,0-1.678.3A9.107,9.107,0,0,0,3.578,7.69,9.3,9.3,0,0,0,1.337,10.2a5.649,5.649,0,0,0-.4.738,5.672,5.672,0,0,0-.336.778c-.107.268-.188.537-.268.805l-.121.416-.094.483A1.11,1.11,0,0,0,.8,14.534,1.358,1.358,0,0,0,2.464,14a12.311,12.311,0,0,1,4.483-3.154,3.845,3.845,0,0,1,1.329-.268,2.8,2.8,0,0,1,.336,0l.161.013h.054a2.818,2.818,0,0,1,.792.148c.121.04.376.134.55.215l.282.134.268.161a4.427,4.427,0,0,1,.913.819,4.345,4.345,0,0,1,.926,2.134,1.053,1.053,0,0,1,.027.3l.013.148.013.067h0l-.013.483a1.55,1.55,0,0,0-.027.215,5.462,5.462,0,0,1-.268,1.127,4.968,4.968,0,0,1-.832.846,3.99,3.99,0,0,1-3.369.752A4.5,4.5,0,0,1,5.215,16a2.837,2.837,0,0,0-.349-.47,2.763,2.763,0,0,0-.456-.416A2.125,2.125,0,0,0,3,14.709a1.759,1.759,0,0,0-1.356.752,2.26,2.26,0,0,0-.309.846,2.72,2.72,0,0,0,.081,1.074,7.907,7.907,0,0,0,2.134,3.664A7.462,7.462,0,0,0,7.457,23.03l.5.067.255.027h.161l.322.013h.282l.215-.013a7.638,7.638,0,0,0,1.745-.282,7.982,7.982,0,0,0,3.073-1.624,8.126,8.126,0,0,0,2.872-6c-.094.067-.188.121-.282.188a1.145,1.145,0,0,1,.282-.188A6.557,6.557,0,0,0,16.972,12.145Z" transform="translate(-0.1 -5.824)"/>
</svg>
