<svg xmlns="http://www.w3.org/2000/svg" xmlns:xlink="http://www.w3.org/1999/xlink" width="314.339" height="26.98" viewBox="0 0 314.339 26.98">
  <defs>
    <linearGradient id="linear-gradient" x1="0.97" y1="0.5" x2="0.03" y2="0.5" gradientUnits="objectBoundingBox">
      <stop offset="0" stop-color="#ffe161"/>
      <stop offset="1" stop-color="#ffa719"/>
    </linearGradient>
  </defs>
  <g id="_Group_" data-name="&lt;Group&gt;" transform="translate(-212.881 -249)">
    <path id="_Path_" data-name="&lt;Path&gt;" d="M289.22,281.857c.212-.029.423-.058.632-.089l-.533-.034c-.141.029-.27.06-.384.094Z" transform="translate(-62.608 -26.947)" fill="url(#linear-gradient)"/>
    <path id="_Path_2" data-name="&lt;Path&gt;" d="M232.681,286.418a14.883,14.883,0,0,0-2.348-.154l-.421.088,1.355.189C232.239,286.676,232.74,286.572,232.681,286.418Z" transform="translate(-14.02 -30.673)" fill="url(#linear-gradient)"/>
    <path id="_Path_3" data-name="&lt;Path&gt;" d="M227.28,286.4l-.565-.079c.13.037.256.07.378.1.108-.007.111-.009.111-.009Z" transform="translate(-11.388 -30.726)" fill="url(#linear-gradient)"/>
    <path id="_Path_4" data-name="&lt;Path&gt;" d="M1283.711,274.17q19.857.351,39.817.505a1.628,1.628,0,0,0,.842-.115c.022-.06-.323-.122-.735-.121-13.294-.125-26.52-.284-39.755-.517a2.04,2.04,0,0,0-.874.112C1282.984,274.1,1283.3,274.161,1283.711,274.17Z" transform="translate(-880.932 -20.515)" fill="url(#linear-gradient)"/>
    <path id="_Path_5" data-name="&lt;Path&gt;" d="M1846.872,313.541c-.315.052-.3.123.024.172a4.279,4.279,0,0,0,1.093,0c.265-.044.255-.13-.025-.171A4.271,4.271,0,0,0,1846.872,313.541Z" transform="translate(-1344.921 -53.1)" fill="url(#linear-gradient)"/>
    <path id="_Compound_Path_" data-name="&lt;Compound Path&gt;" d="M51.142,26.98h-.005A82.006,82.006,0,0,1,40.5,26.351a26.254,26.254,0,0,1-3.587-.7,3.949,3.949,0,0,1-1.827-.885.466.466,0,0,1-.1-.482c.129-.327.648-.642,1.542-.939a22.193,22.193,0,0,1,3.566-.771c-.806,0-1.517-.01-2.176-.018l-3.446-.168a40.99,40.99,0,0,1-7.8-.989l-2.414-.587c-1.4-.485-3.206-.944-4.952-1.387A43.911,43.911,0,0,1,13.226,17.6l.589-.438-.621-.128a19.3,19.3,0,0,1-2.545-.547,3.656,3.656,0,0,1-1.363-.642l.2-.531a3.264,3.264,0,0,1,1.095-.885,11.748,11.748,0,0,1,2.007-.832c-.057-.223.135-.443.569-.654-1-.387-1.491-.74-1.516-1.081-.016-.222.172-.446.558-.665-.359-.067-.556-.151-.553-.238,0-.109.315-.213.855-.284a11.637,11.637,0,0,1,1.193-.082l-.01,0c-.467-.14-.6-.179-1.228-.334-.837-.046-1.322-.081-1.326-.081-2.235-.094-2.235-.094-4.17-.185a22.487,22.487,0,0,1-2.7-.447C3.031,8.909,2.617,8.7,2.569,8.5c-.023-.094.039-.184.133-.319.109-.04.229-.08.358-.116-1.49-.138-1.583-.148-1.977-.19a6.98,6.98,0,0,1-.7-.158C.317,7.5.317,7.5.064,7.419A.2.2,0,0,1,0,7.253c.825-.245.825-.245.847-.315a4.712,4.712,0,0,1,.464-.12l1.344-.1L2.824,6.7,4.9,7.274l.45-.2.483.262L5.56,7.1l1.047.146-1.2-.211c1.885.067,2.333.083,2.881.083.167,0,.345,0,.571,0h.016c.192.005.391.008.592.008.679,0,1.208-.03,1.383-.039l.043,0a.233.233,0,0,1-.091-.128c2.648.093,2.648.093,5.229.2.226.05.406.1.606.158a4.482,4.482,0,0,1,.989-.09c.088,0,.176,0,.262,0l.758.023h.02l.577.018.29-.033a.046.046,0,0,0,0-.018l.568-.056.117-.011.075-.007.383-.038.236-.027h0l.009,0,4.947-.488c.767.028,1.5.065,2.252.113-.224-.035-.443-.07-.656-.108-.107-.02-.171-.049-.2-.091a.136.136,0,0,1,0-.114c.009-.03.016-.056,0-.075s-.034-.024-.073-.028c-3.716-.3-7.611-.477-12.317-.659-.43.051-.776.1-1.057.161l-.246-.016-.062,0-.072,0-.132-.008-.52.061.65.066a1.984,1.984,0,0,0-.292.109l.466-.065.111-.015c2.72.274,4.992.493,7.151.687.48.033.786.107.8.191,0,.032-.035.064-.118.093a4.977,4.977,0,0,1-1.252.124c-.2,0-.4-.007-.583-.022-2.27-.142-4.656-.251-6.964-.357h0c-1.13-.052-2.3-.106-3.439-.162C8.7,6.5,8.048,6.52,7.383,6.52L7,6.518a25.658,25.658,0,0,1-3.438-.243c-.913-.141-1.483-.327-1.605-.525A.144.144,0,0,1,1.951,5.6a1.356,1.356,0,0,0-.194-.256c-.128-.145-.26-.294-.225-.433.026-.1.14-.19.35-.267a14.5,14.5,0,0,1,2.851-.606c1.109-.146,2.436-.256,3.944-.327l-.8-.094a23.194,23.194,0,0,1-3.937-.7c-.889-.27-1.369-.573-1.386-.878-.023-.4.745-.794,2.221-1.128A51.629,51.629,0,0,1,14.951.077a66.694,66.694,0,0,1,7.063.349C21.917.382,21.805.339,21.7.3h0c-.106-.041-.215-.084-.31-.125,1.732.006,3.305.115,4.827.219l.247.017L24.92.218l-.021,0C24.32.145,23.721.072,23.14,0a150.1,150.1,0,0,1,15,1.573c.329.054.809.089,1.274.123h.009c.2.014.4.029.591.046a21.781,21.781,0,0,1,3.722.32c7.344.2,13.567.625,18.5,1.26a53.754,53.754,0,0,1,6.434.353l.036,0h.012l.056,0c-.244-.054-.486-.109-.7-.157-.238-.054-.483-.11-.734-.165a23.62,23.62,0,0,1,2.377.244h0c.572.08,1.164.163,1.88.214-.09-.072-.191-.145-.289-.216h0c-.1-.073-.2-.148-.3-.222,2.963.095,6.057.143,9.048.189,5.69.088,11.573.179,16.785.6.3.008.586.023.862.037h0l.053,0c3.671-.329,7.03-.6,10.951-.643l-2.168-.075-1.926-.066c3.22-.206,5.8-.3,8.362-.3l.667,0c4.3.021,8.857.2,12.823.518a64.387,64.387,0,0,1,9.8,1.348l6.888-.056c14.034-.113,28.546-.23,42.782-.472l.222,0a3.79,3.79,0,0,1,1.549.206.043.043,0,0,1,0,.046,2.623,2.623,0,0,1-1.333.226c-11.223.428-22.477.668-35.923.9,10.2.23,20.209.44,30.506.486l2.069-.029.3,0,1.592-.023c.243,0,.5-.006.748-.006.921,0,1.895.023,3.156.075l5.54.006h.028c2.389,0,4.86.006,7.276.006,8.125,0,16.933-.031,26.3-.258C239.553,5.8,249.722,5.5,260.941,5.1l4.006-.143c14.407-.517,28.015-1.005,42.56-1.007.154,0,.309,0,.462,0a19.556,19.556,0,0,1,2.562.153,2.5,2.5,0,0,1,1.289.385.106.106,0,0,1,.017.117c-.066.138-.442.271-1.057.373a17.125,17.125,0,0,1-2.353.187c-4.574.142-9.2.291-13.669.434-12.988.417-26.419.848-39.749,1.165-14.937.355-28.209.528-40.577.528-2.078,0-4.166,0-6.206-.015h-.045c-3.792-.018-7.374-.036-11.012-.06.05.048.091.091.091.135,0,.173-.322.343-.931.489,4.075.044,8.289.116,12.523.213h0c9.32-.3,18.956-.619,28.884-.619,2.342,0,4.662.018,6.9.053,7.556.125,14.613.452,21.438.769l.225.01,2.506.116c3.895-.08,7.853-.171,11.68-.259h.013c6.014-.138,12.232-.28,18.4-.388.084,0,.17-.007.257-.007a2.243,2.243,0,0,1,.711.082c.032.014.047.029.045.044-.009.048-.215.091-.525.109-7.612.452-15.362.773-21.262,1,.972.178,1.558.391,1.695.616a.185.185,0,0,1,.023.155c-.087.3-.907.57-2.311.771l2.058.009h.079c.9,0,1.834.007,2.751.013a4.094,4.094,0,0,1,1.759.239.049.049,0,0,1,.013.041c-.021.159-.765.279-1.731.279h-.051c-5.481-.015-11.045-.035-16.425-.055h-.091l-1.706-.006-1.7-.006c-7.864.166-15.9.312-23.887.434a6.5,6.5,0,0,1,2.309.729.007.007,0,0,1,0,.005l2.328-.014h.093l1.274-.008c10.106-.382,20.041-.676,29.531-.872,10.217-.212,20.3-.319,29.963-.319,3.148,0,6.31.011,9.4.034h.026c.448,0,.806.055.814.126a.026.026,0,0,1-.008.021,1.5,1.5,0,0,1-.692.1h-.054c-3.128-.023-6.337-.034-9.536-.034-3.752,0-7.613.016-11.474.047h.011l.017,0c.149.022.235.055.235.089s-.074.061-.21.083a3.79,3.79,0,0,1-.564.035,3.953,3.953,0,0,1-.531-.03c-.151-.023-.235-.054-.235-.087s.074-.062.2-.084c-12.4.11-25.407.391-38.672.836,5.554-.033,12.115-.067,18.666-.067,6.15,0,11.662.029,16.852.089l.629-.043h.018c1.056-.072,2.148-.147,3.24-.217.051,0,.1,0,.161,0a2.7,2.7,0,0,1,.8.093c.016.009.023.02.021.03-.013.052-.254.1-.549.115-.248.013-.5.029-.74.044h-.009l-.338.021c2.009.025,3.608.262,3.888.576a.141.141,0,0,1,.042.108c-.058.176-.522.339-1.307.459a20.2,20.2,0,0,1-2.907.186h-.16c-5.749.065-11.847.106-18.644.126l-.99.032h-.039l-.986.032c-.6.05-1.24.105-2.024.174,8.648.129,17.82.291,28.867.509h.037c.812,0,1.487.1,1.5.231a.045.045,0,0,1-.013.036,3.317,3.317,0,0,1-1.458.206c-16.079.494-32.8.856-51.122,1.106l-3.771.374-.054.005c-4.306.428-8.758.87-13.21,1.3.791.01,1.508.016,2.191.017,4.665,0,9.588-.1,15.051-.309,4.865-.185,9.7-.436,14.375-.678h.016c7.429-.385,15.111-.784,23.1-.929.053,0,.107,0,.161,0a1.591,1.591,0,0,1,.726.107.02.02,0,0,1,0,.023c-.026.052-.287.108-.72.108-5.7.141-10.958.412-16.525.7-2.942.152-5.985.309-9.079.443l-1.444.063-.274.012c-6.659.292-12.948.568-19.148.956,8.056-.088,16.054-.366,23.788-.635h.008c5.482-.19,11.15-.387,16.8-.515.149-.007.3-.011.456-.011a6.763,6.763,0,0,1,1.119.081.7.7,0,0,1,.336-.091c1.5-.157,3.234-.288,5.462-.414.1-.008.2-.012.306-.012a2.415,2.415,0,0,1,.708.081c.047.014.07.029.068.044,0,.042-.2.086-.505.115-1.724.092-3.547.2-5.192.4-.123.012-.257.018-.4.018a4.561,4.561,0,0,1-.473-.024.049.049,0,0,1,.016.053c-.034.089-.382.165-.932.2-10.782.747-22.422,1.134-33.678,1.507l-.074,0c-2.495.083-5.074.168-7.6.257a1.432,1.432,0,0,1-.59.257,17.533,17.533,0,0,1-4.134.378c-.262,0-.527,0-.788-.01l-1.52-.068c-2.557-.067-5.139-.128-7.635-.187H223.2c-3.513-.083-7.146-.169-10.709-.27-1.3.131-2.737.21-4.273.235-4.987.322-10.376.657-15.984.915.359.079.546.171.543.266-.049.111-.356.214-.864.289a13.276,13.276,0,0,1-1.85.116h-.106c-.7.007-1.392.011-2.211.015,2.524.068,4.541.127,6.347.185.283,0,.567.017.843.04.774,0,1.548,0,2.3,0,1.6,0,3.2-.007,4.752-.022,21.244-.215,41.3-1.157,59.808-2.144a4.17,4.17,0,0,1,.465-.024,3.5,3.5,0,0,1,.635.049c.076.023.116.049.113.074,0,.041-.119.074-.314.092-4,.389-7.893.825-11.654,1.246h0c-3.862.433-7.855.88-11.963,1.276-4.6.443-8.874.773-13.05,1.007-17.489.991-33.719,1.748-49.619,2.316h-.11c-13.346,0-25.845.325-39.078.67h-.013c-4.152.108-8.445.22-12.792.322-11.081.264-22.772.447-35.742.56-12.309.108-24.7.143-35.349.167C52.6,26.972,51.865,26.98,51.142,26.98ZM16.114,15.454l-2.036,1.332.168.055Zm8.577-4.672h0l.549.169.035.011.372.115h.012ZM10.168,8.532h0l.678.149-.021-.006A5.1,5.1,0,0,0,10.168,8.532Zm30.337-.5c.252,0,.509,0,.764,0,3.463.037,6.98.106,10.451.206-.089-.037-.132-.069-.128-.093.012-.065.355-.075.657-.083h.006c.094,0,.183-.005.259-.009l.626-.022h.014l.646-.023c-3.531-.128-7.136-.271-11.022-.435-1.094-.046-2.235-.086-3.339-.124-2.31-.081-4.7-.165-6.852-.306a46.314,46.314,0,0,1,4.792.961C38.387,8.062,39.437,8.037,40.505,8.037ZM58.428,4.9l1.5.094.058,0,1.046.065.281.008-1.222-.239-.75-.147c-.53-.046-.965-.082-1.368-.112-5.171-.106-10.118-.412-14.9-.707H43.05c-1.658-.1-3.372-.208-5.077-.3-1.348.175-2.787.335-4.278.475,5.15.1,10.256.324,15.176.676,3.56.119,7.071.216,10.036.3L58.87,5c-.137-.03-.292-.063-.441-.1Z" transform="translate(212.881 249)" fill="url(#linear-gradient)"/>
  </g>
</svg>
